<svg xmlns="http://www.w3.org/2000/svg" pointer-events="none" class="leaflet-zoom-animated" width="1219" height="800" viewBox="-102 -67 1219 800" style="transform: translate3d(-102px, -67px, 0px);"><g><path class="leaflet-interactive" stroke="black" stroke-opacity="1" stroke-width="2" stroke-linecap="round" stroke-linejoin="round" fill="#fff" fill-opacity="0.2" fill-rule="evenodd" d="M652 457L649 453L651 449L649 449L649 447L644 445L643 443L643 431L647 424L649 411L653 406L656 396L658 395L660 389L653 361L655 336L650 330L652 330L653 328L651 328L652 326L650 326L652 320L649 319L652 315L649 312L653 311L652 310L657 306L662 296L664 296L664 292L662 292L661 289L662 287L667 285L668 280L668 273L664 272L667 269L662 266L659 259L656 257L655 244L658 243L659 238L663 237L668 229L672 228L672 225L674 225L672 218L678 207L677 199L679 195L682 195L684 193L689 179L687 179L687 177L685 177L685 175L683 175L680 171L683 169L682 168L685 165L684 162L671 168L664 181L659 180L656 174L652 174L652 177L650 178L645 173L639 170L638 174L641 176L642 180L633 184L631 184L628 181L626 182L630 186L627 188L629 190L627 191L626 189L621 193L620 196L617 198L618 200L615 205L612 208L610 206L605 211L605 213L602 214L602 220L599 219L595 225L593 225L593 227L589 230L584 245L590 249L590 253L587 256L588 257L584 259L579 252L577 272L570 275L567 273L556 276L552 274L547 277L545 275L542 275L540 268L529 264L527 261L525 263L526 264L524 268L518 268L518 272L514 272L513 273L515 274L512 277L510 277L511 279L513 279L509 285L507 293L510 299L508 299L511 302L511 305L508 305L510 315L509 316L513 318L517 317L520 320L520 322L523 321L535 325L539 330L538 332L541 330L541 333L543 335L545 334L545 336L549 337L550 333L551 337L558 338L560 343L559 344L560 343L564 345L564 342L569 344L571 347L571 357L574 361L572 366L573 368L564 376L566 391L570 395L569 407L565 409L555 410L549 408L543 411L528 408L529 410L525 411L532 423L534 423L534 425L532 427L526 427L524 429L525 427L522 426L520 430L510 428L509 430L505 431L503 428L500 427L500 424L498 422L497 423L491 419L483 419L478 421L476 420L474 423L472 423L476 436L470 442L472 444L469 444L464 448L466 449L465 451L467 452L471 451L475 453L483 461L480 467L474 464L473 466L476 467L477 472L476 474L473 474L472 481L469 485L470 487L473 488L471 491L472 496L475 497L477 502L475 507L471 505L470 501L465 503L464 502L459 505L454 501L449 501L443 508L442 514L438 514L442 521L446 521L449 524L449 526L448 524L445 527L447 526L446 535L444 538L442 537L438 540L427 540L431 548L430 549L432 551L437 547L442 547L442 544L450 544L451 542L456 550L466 552L469 555L477 551L479 552L483 549L486 549L486 551L490 549L492 551L499 550L498 551L501 556L500 561L508 567L513 559L516 560L516 565L520 568L523 566L527 567L528 571L530 570L535 578L538 578L540 581L542 577L545 576L549 577L552 574L555 576L563 574L565 577L564 578L568 579L572 583L575 583L582 589L591 592L600 600L598 601L600 602L600 604L610 604L614 602L614 600L616 599L613 594L615 592L613 587L615 584L613 580L614 578L609 572L609 568L616 559L615 556L630 557L634 559L636 555L639 556L642 554L639 551L639 545L634 541L629 541L626 539L624 541L621 539L623 531L622 530L618 528L614 529L608 527L607 526L610 522L616 520L620 522L625 521L634 524L640 523L642 526L647 526L653 525L655 522L659 521L660 527L662 526L664 529L667 526L670 526L670 523L678 521L678 503L671 499L668 491L660 488L659 486L663 483L662 480L659 479L659 474L661 471L657 468L652 467L655 461L653 458zM679 508L679 509zM454 547L454 548z" id="陕西省"/><path class="leaflet-interactive" stroke="#333" stroke-opacity="1" stroke-width="1" stroke-linecap="round" stroke-linejoin="round" stroke-dasharray="1,6" fill="#eee" fill-opacity="0.5" fill-rule="evenodd" d="M621 468L617 466L615 467L613 465L611 466L607 463L608 458L605 454L607 447L605 439L603 439L600 442L596 441L592 448L589 447L585 449L585 457L580 459L577 462L577 464L573 465L573 467L571 465L563 469L542 467L543 468L539 480L531 481L528 484L526 493L528 495L535 497L537 494L548 496L552 495L557 491L560 493L562 491L566 491L567 493L569 489L575 489L577 491L580 489L581 490L589 484L592 485L592 487L598 486L601 488L610 488L613 486L614 483L611 481L612 477L616 476L617 474L620 475L620 473L624 471L621 470zM595 490L594 491z" id="西安市"/><path class="leaflet-interactive" stroke="#333" stroke-opacity="1" stroke-width="1" stroke-linecap="round" stroke-linejoin="round" stroke-dasharray="1,6" fill="#eee" fill-opacity="0.5" fill-rule="evenodd" d="M581 405L581 407L575 408L575 410L570 416L571 418L568 419L570 419L568 422L574 432L576 432L579 435L586 435L585 431L590 431L591 427L595 425L597 422L599 422L599 419L603 419L606 421L607 420L607 416L604 416L601 413L601 409L604 409L605 406L609 405L608 396L599 396L596 392L589 394L582 405z" id="铜川市"/><path class="leaflet-interactive" stroke="#333" stroke-opacity="1" stroke-width="1" stroke-linecap="round" stroke-linejoin="round" stroke-dasharray="1,6" fill="#eee" fill-opacity="0.5" fill-rule="evenodd" d="M542 467L541 468L539 462L544 462L540 448L543 445L542 440L539 435L539 432L535 433L533 427L526 427L524 429L525 427L522 426L520 430L510 428L509 430L505 431L503 428L500 427L500 424L498 422L497 423L491 419L483 419L478 421L476 420L474 423L472 423L476 436L470 442L472 444L469 444L464 448L466 449L465 451L467 452L471 451L475 453L483 461L480 467L474 464L473 466L476 467L477 472L476 474L473 474L472 481L469 485L470 487L473 488L471 491L472 496L475 497L477 502L480 500L479 499L481 498L481 496L486 498L487 490L489 488L497 491L498 487L505 494L510 490L510 496L513 497L514 499L518 497L519 498L521 496L526 496L528 485L533 480L539 481L541 471L543 468z" id="宝鸡市"/><path class="leaflet-interactive" stroke="#333" stroke-opacity="1" stroke-width="1" stroke-linecap="round" stroke-linejoin="round" stroke-dasharray="1,6" fill="#eee" fill-opacity="0.5" fill-rule="evenodd" d="M533 426L534 431L537 433L539 432L543 445L540 448L543 458L542 459L544 462L539 462L541 468L545 467L552 469L563 469L571 465L573 467L573 465L577 464L578 460L585 457L585 449L589 447L592 448L595 442L589 442L589 438L585 434L580 435L574 432L568 423L570 419L568 419L571 418L571 414L575 408L581 407L581 405L579 403L578 404L575 397L571 395L569 397L569 407L565 409L553 410L549 408L543 411L538 411L532 408L528 408L529 410L525 411L532 423L534 423L535 425z" id="咸阳市"/><path class="leaflet-interactive" stroke="#333" stroke-opacity="1" stroke-width="1" stroke-linecap="round" stroke-linejoin="round" stroke-dasharray="1,6" fill="#eee" fill-opacity="0.5" fill-rule="evenodd" d="M652 457L649 453L651 449L649 449L649 447L644 445L643 443L643 431L647 424L649 411L653 406L656 396L658 395L660 389L658 379L655 377L645 385L642 384L638 387L642 389L645 393L645 395L642 394L643 396L641 399L639 399L636 402L633 402L632 400L631 402L624 400L621 400L620 402L615 400L610 401L609 405L601 409L600 411L603 416L607 416L606 421L603 419L599 419L599 422L597 422L594 426L591 426L590 430L585 431L587 437L589 438L589 442L600 442L605 439L607 447L605 454L608 461L607 462L611 466L613 465L615 467L617 466L621 468L621 466L623 468L624 464L632 468L634 462L633 461L637 456L644 458L650 457z" id="渭南市"/><path class="leaflet-interactive" stroke="#333" stroke-opacity="1" stroke-width="1" stroke-linecap="round" stroke-linejoin="round" stroke-dasharray="1,6" fill="#eee" fill-opacity="0.5" fill-rule="evenodd" d="M657 377L653 361L655 336L650 330L652 330L653 328L651 328L652 326L650 326L652 320L649 319L652 315L647 313L646 314L641 311L640 313L637 314L630 300L633 300L633 296L632 297L629 295L627 297L621 297L622 294L624 295L619 287L613 287L609 284L606 287L604 287L601 292L596 294L595 293L595 295L587 295L584 299L580 297L581 304L580 303L577 306L575 306L575 308L578 310L576 314L571 310L567 313L563 311L566 310L566 303L565 300L562 298L563 297L560 289L551 294L553 295L552 296L554 299L549 303L549 301L547 301L546 304L536 307L535 300L533 300L533 298L526 305L528 307L527 309L526 308L526 310L530 312L527 314L529 320L526 322L535 325L536 327L537 326L539 330L538 332L541 330L541 333L543 335L545 334L545 336L549 337L550 333L551 337L557 337L560 343L559 344L560 343L564 345L564 342L569 344L571 347L571 357L574 361L572 366L573 368L564 376L565 387L566 391L570 395L575 397L580 405L584 403L589 394L595 392L599 396L607 396L609 405L610 401L612 400L618 402L620 402L621 400L627 400L628 402L630 402L632 400L633 402L636 402L642 398L642 394L645 395L643 390L638 387L642 384L645 385L655 377z" id="延安市"/><path class="leaflet-interactive" stroke="#333" stroke-opacity="1" stroke-width="1" stroke-linecap="round" stroke-linejoin="round" stroke-dasharray="1,6" fill="#eee" fill-opacity="0.5" fill-rule="evenodd" d="M544 496L537 494L535 497L528 495L519 498L518 497L515 499L510 496L510 490L505 494L501 490L499 490L499 487L497 488L498 491L495 491L489 487L487 490L486 497L481 496L482 498L479 499L480 500L475 507L471 505L470 501L465 503L464 502L459 505L454 501L449 501L443 508L442 514L438 514L442 521L446 521L449 524L449 526L448 524L445 527L447 526L446 535L444 538L442 537L438 540L427 540L431 548L430 549L432 551L437 547L442 547L442 544L450 544L451 542L456 550L466 552L469 555L477 551L479 552L483 549L486 549L486 551L490 549L492 551L499 550L498 551L501 556L500 561L504 563L506 566L508 567L513 559L516 560L516 565L520 568L523 566L527 567L528 571L530 570L535 578L538 578L540 581L542 577L547 577L549 575L546 565L550 565L554 562L550 555L553 556L552 549L548 547L545 541L547 538L547 533L545 529L546 524L542 520L548 509L544 506L544 497zM454 547L454 548z" id="汉中市"/><path class="leaflet-interactive" stroke="#333" stroke-opacity="1" stroke-width="1" stroke-linecap="round" stroke-linejoin="round" stroke-dasharray="1,6" fill="#eee" fill-opacity="0.5" fill-rule="evenodd" d="M651 314L649 312L653 311L652 310L657 306L662 296L664 296L664 292L662 292L661 289L662 287L667 285L668 280L668 273L664 272L667 269L662 266L659 259L656 257L655 244L658 243L659 238L663 237L668 229L672 228L672 225L674 225L672 218L678 207L677 199L679 195L682 195L684 193L689 179L687 179L687 177L685 177L685 175L683 175L680 171L683 169L682 168L685 165L684 162L671 168L664 181L659 180L656 174L652 174L652 177L650 178L645 173L639 170L638 174L641 176L642 180L633 184L631 184L628 181L626 182L630 186L627 188L629 190L627 191L626 189L621 193L620 196L617 198L618 200L615 205L612 208L610 206L605 211L605 213L602 214L602 220L599 219L595 225L593 225L593 227L589 230L584 245L590 249L590 253L587 256L588 257L584 259L579 252L577 272L570 275L567 273L556 276L552 274L547 277L545 275L542 275L540 268L529 264L527 261L525 263L526 264L524 268L518 268L518 272L514 272L513 273L515 274L512 277L510 277L511 279L513 279L509 285L507 293L510 299L508 299L511 302L511 305L508 305L510 315L509 316L513 318L517 317L520 320L520 322L525 322L529 320L528 314L530 312L527 312L526 308L528 308L527 305L530 303L530 300L532 298L533 300L535 300L536 307L546 305L547 300L549 301L549 303L554 299L554 297L552 296L553 295L551 294L556 292L558 289L560 290L563 296L562 298L565 299L566 302L566 309L564 311L566 313L569 310L571 310L576 314L578 312L576 306L580 303L581 304L580 297L584 299L590 294L598 294L602 292L604 287L606 287L608 284L616 288L619 287L624 295L622 294L621 297L627 297L629 294L632 297L634 297L633 300L631 300L631 302L637 314L640 313L641 311L645 314L647 313L650 315z" id="榆林市"/><path class="leaflet-interactive" stroke="#333" stroke-opacity="1" stroke-width="1" stroke-linecap="round" stroke-linejoin="round" stroke-dasharray="1,6" fill="#eee" fill-opacity="0.5" fill-rule="evenodd" d="M607 526L602 527L601 525L597 524L595 526L592 526L589 523L584 528L575 519L572 520L573 519L571 517L567 517L570 505L574 506L579 501L577 499L584 495L583 492L580 492L578 490L577 491L575 489L569 489L567 493L566 491L560 493L558 491L553 493L552 495L544 496L544 505L548 509L542 520L546 524L545 529L547 533L547 538L545 540L547 547L548 546L552 549L553 555L550 555L554 560L554 562L550 565L546 565L549 573L548 576L549 577L552 574L555 576L563 574L565 577L564 578L568 579L572 583L575 583L582 589L591 592L600 600L598 601L600 602L600 604L610 604L614 602L614 600L616 599L613 594L615 592L613 587L615 584L613 580L614 578L609 572L609 568L616 559L615 556L630 557L634 559L636 555L639 556L642 554L639 551L639 545L634 541L629 541L626 539L624 541L621 539L623 531L622 530L618 528L614 529L608 527z" id="安康市"/><path class="leaflet-interactive" stroke="#333" stroke-opacity="1" stroke-width="1" stroke-linecap="round" stroke-linejoin="round" stroke-dasharray="1,6" fill="#eee" fill-opacity="0.5" fill-rule="evenodd" d="M595 490L594 491L594 487L592 487L592 485L589 484L581 490L580 489L580 492L584 494L583 497L581 496L579 499L577 499L579 501L574 506L571 505L568 509L567 517L570 517L573 519L572 520L575 519L584 528L589 523L592 526L595 526L597 524L602 527L607 526L610 522L616 520L620 522L625 521L634 524L640 523L642 526L653 525L655 522L659 521L660 527L662 526L664 529L667 526L670 526L670 523L678 521L678 503L671 499L668 491L660 488L659 486L663 483L662 480L659 479L659 474L661 471L657 468L652 467L655 461L652 457L636 457L633 460L634 462L632 468L624 464L623 468L622 466L621 467L621 470L623 471L620 475L618 474L612 477L611 481L614 483L614 486L610 488L601 488L598 486L596 487zM595 490L596 487L594 487L595 490zM679 508L679 509z" id="商洛市"/></g></svg>