<svg t="1711963597506" class="icon" viewBox="0 0 1024 1024" version="1.1"
    xmlns="http://www.w3.org/2000/svg" p-id="16303" xmlns:xlink="http://www.w3.org/1999/xlink"
    width="200" height="200">
    <path
        d="M761.6 136.192L537.6 6.8608a51.2 51.2 0 0 0-51.2 0L262.4 136.192a51.2 51.2 0 0 0-25.6 44.3392v258.6624a51.2 51.2 0 0 0 25.6 44.3392L486.4 612.864a51.2 51.2 0 0 0 51.2 0l224-129.3312a51.2 51.2 0 0 0 25.6-44.3392V180.5312a51.2 51.2 0 0 0-25.6-44.3392zM512 80.7424l160 92.416L512 265.5232l-160-92.16z m-198.4 158.72l160 92.16v184.7296l-160-92.16z m236.8 277.0944V332.032l160-92.16v184.5248z"
        fill="#00C080" p-id="16304"></path>
    <path
        d="M524.8 540.4672L300.8 411.136a51.2 51.2 0 0 0-51.2 0L25.6 540.4672a51.2 51.2 0 0 0-25.6 44.3392v258.6624a51.2 51.2 0 0 0 25.6 44.3392l224 129.3312a51.2 51.2 0 0 0 51.2 0l224-129.3312a51.2 51.2 0 0 0 25.6-44.3392v-258.6624a51.2 51.2 0 0 0-25.6-44.3392zM275.2 485.0688l160 92.16-160 92.16-160-92.16zM76.8 643.9424l160 92.16v184.9856L76.8 828.672z m236.8 277.1456v-184.7808l160-92.16v184.7296z"
        fill="#00C080" p-id="16305"></path>
    <path
        d="M998.4 540.4672L774.4 411.136a51.2 51.2 0 0 0-51.2 0L499.2 540.4672a51.2 51.2 0 0 0-25.6 44.3392v258.6624a51.2 51.2 0 0 0 25.6 44.3392l224 129.3312a51.2 51.2 0 0 0 51.2 0L998.4 887.808a51.2 51.2 0 0 0 25.6-44.3392v-258.6624a51.2 51.2 0 0 0-25.6-44.3392z m-249.6-55.3984l160 92.16-160 92.16-160-92.16z m-198.4 158.72l160 92.16v185.1392l-160-92.416z m236.8 277.1456v-184.6272l160-92.16v184.7296z"
        fill="#00C080" p-id="16306"></path>
</svg>